<svg xmlns="http://www.w3.org/2000/svg" width="299.636" height="101.746" viewBox="0 0 299.636 101.746">
  <g id="Group_1130" data-name="Group 1130" transform="translate(-377.404 -34.1)">
    <g id="Group_2" data-name="Group 2" transform="translate(496.952 51.787)">
      <text id="Solutions_for_a_green_future" data-name="Solutions for
a green future" transform="translate(72.497 65.058)" fill="#00ab84" font-size="16" font-family="ProximaNovaA-Semibold, Proxima Nova Alt" font-weight="600" letter-spacing="0.005em"><tspan x="-45.944" y="0">Solutions for</tspan><tspan x="-51.504" y="14">a green future</tspan></text>
      <g id="Group_1" data-name="Group 1">
        <path id="Path_1" data-name="Path 1" d="M464.308,44.526H447.873V83.305h6.369V68.5h10.067c7.646,0,12.985-4.93,12.985-11.987S471.954,44.526,464.308,44.526Zm-10.067,5.647h9.483c4.2,0,7.023,2.546,7.023,6.34s-2.823,6.34-7.023,6.34h-9.483Z" transform="translate(-447.873 -44.526)" fill="#00ab84" stroke="#3e9f84" stroke-width="0.398"/>
        <path id="Path_2" data-name="Path 2" d="M481.037,50.191c-8.542,0-14.74,6.263-14.74,14.891,0,8.662,6.2,14.947,14.74,14.947s14.739-6.285,14.739-14.947C495.775,56.454,489.577,50.191,481.037,50.191Zm8.6,14.891c0,4.669-2.692,9.694-8.6,9.694-5.953,0-8.664-5.025-8.664-9.694,0-4.64,2.711-9.636,8.664-9.636C486.949,55.447,489.641,60.443,489.641,65.082Z" transform="translate(-435.042 -40.581)" fill="#00ab84" stroke="#3e9f84" stroke-width="0.398"/>
        <rect id="Rectangle_1" data-name="Rectangle 1" width="5.9" height="38.78" transform="translate(65.908 0)" fill="#00ab84" stroke="#3e9f84" stroke-width="0.398"/>
        <path id="Path_3" data-name="Path 3" d="M497.364,51.748a3.581,3.581,0,1,0,0-7.156,3.622,3.622,0,0,0-3.681,3.549A3.694,3.694,0,0,0,497.364,51.748Z" transform="translate(-415.968 -44.48)" fill="#00ab84" stroke="#3e9f84" stroke-width="0.398"/>
        <path id="Path_4" data-name="Path 4" d="M518.771,76.639a4.322,4.322,0,0,1-2.535.972c-1.837,0-2.112-1.7-2.112-2.709V58.7h5.916l1.98-5.2h-7.9V46.121h-5.9V53.5h-9.278a4.731,4.731,0,0,0-4.815,4.633V82.194h5.9V59.844a1.174,1.174,0,0,1,1.206-1.126l6.986-.02V75.8c0,4.492,2.558,7.069,7.017,7.069a10.866,10.866,0,0,0,6.234-2.037l.6-.409-2.645-4.265Z" transform="translate(-415.656 -43.415)" fill="#00ab84" stroke="#3e9f84" stroke-width="0.398"/>
        <path id="Path_5" data-name="Path 5" d="M537.726,75.217l-3.04-3.953-.609.6a11.886,11.886,0,0,1-8.189,3.193,8.925,8.925,0,0,1-9.337-7.819h22.79V65.418c0-8.966-5.894-15.227-14.33-15.227A14.464,14.464,0,0,0,510.33,65.082c0,8.8,6.229,14.947,15.149,14.947a16.608,16.608,0,0,0,11.755-4.343ZM516.547,62.651c.5-3.267,2.976-7.485,8.4-7.485a8.184,8.184,0,0,1,8.5,7.485Z" transform="translate(-404.374 -40.581)" fill="#00ab84" stroke="#3e9f84" stroke-width="0.398"/>
        <path id="Path_6" data-name="Path 6" d="M533.421,44.592a3.622,3.622,0,0,0-3.681,3.549,3.713,3.713,0,0,0,7.422,0A3.653,3.653,0,0,0,533.421,44.592Z" transform="translate(-390.856 -44.48)" fill="#00ab84" stroke="#3e9f84" stroke-width="0.398"/>
        <path id="Path_7" data-name="Path 7" d="M533.135,81.036c0,2.687-1.154,3.937-3.632,3.937a5.343,5.343,0,0,1-1.836-.229l-.865-.331-.845,5.089.638.192a11.416,11.416,0,0,0,3.376.422c5.761,0,9.064-3.31,9.064-9.081V50.469h-5.9Z" transform="translate(-393.491 -40.387)" fill="#00ab84" stroke="#3e9f84" stroke-width="0.398"/>
        <path id="Path_8" data-name="Path 8" d="M551.273,50.191c-8.54,0-14.739,6.263-14.739,14.891,0,8.662,6.2,14.947,14.739,14.947s14.741-6.285,14.741-14.947C566.013,56.454,559.815,50.191,551.273,50.191Zm8.6,14.891c0,4.669-2.692,9.694-8.6,9.694-5.953,0-8.664-5.025-8.664-9.694,0-4.64,2.711-9.636,8.664-9.636C557.185,55.447,559.877,60.443,559.877,65.082Z" transform="translate(-386.125 -40.581)" fill="#00ab84" stroke="#3e9f84" stroke-width="0.398"/>
      </g>
    </g>
    <path id="Path_9" data-name="Path 9" d="M432.906,34.1H406.536l-20.4,71.218h26.371Z" transform="translate(6.082 0.001)" fill="#00ab84" opacity="0.9"/>
    <path id="Path_10" data-name="Path 10" d="M401.983,53.544c-.226-1.313-2.117-8.927-8.423-12.985-5.171-3.327-13-4.07-13-4.07a32.259,32.259,0,0,0-3.091,11.4c-.47,6.662,1.245,19.492,19.894,21.682Z" transform="translate(0 1.665)" fill="#00ab84" opacity="0.9"/>
    <path id="Path_11" data-name="Path 11" d="M428.665,34.1c-.2,0-.383,0-.578,0a35.793,35.793,0,1,0,.578,0Zm0,50.393A14.784,14.784,0,1,1,443.448,69.71,14.784,14.784,0,0,1,428.665,84.493Z" transform="translate(10.901)" fill="#00ab84" opacity="0.9"/>
  </g>
</svg>
